<mxfile host="app.diagrams.net" agent="Mozilla/5.0 (X11; Linux x86_64) AppleWebKit/537.36 (KHTML, like Gecko) Chrome/128.0.0.0 Safari/537.36" version="24.7.12">
  <diagram name="Page-1" id="2yW343g9DIp89ofm5E7c">
    <mxGraphModel dx="1368" dy="751" grid="1" gridSize="10" guides="1" tooltips="1" connect="1" arrows="1" fold="1" page="1" pageScale="1" pageWidth="850" pageHeight="1100" math="0" shadow="0">
      <root>
        <mxCell id="0" />
        <mxCell id="1" parent="0" />
        <mxCell id="G3xAbqQEGoSnrevAdHmW-15" value="" style="endArrow=none;html=1;rounded=0;dashed=1;entryX=0;entryY=0.5;entryDx=0;entryDy=0;entryPerimeter=0;endFill=0;" edge="1" parent="1" target="G3xAbqQEGoSnrevAdHmW-1">
          <mxGeometry width="50" height="50" relative="1" as="geometry">
            <mxPoint x="130" y="240" as="sourcePoint" />
            <mxPoint x="550" y="239.5" as="targetPoint" />
          </mxGeometry>
        </mxCell>
        <mxCell id="G3xAbqQEGoSnrevAdHmW-2" value="" style="verticalLabelPosition=bottom;verticalAlign=top;html=1;shape=mxgraph.basic.frame;dx=10;whiteSpace=wrap;" vertex="1" parent="1">
          <mxGeometry x="294" y="220" width="50" height="40" as="geometry" />
        </mxCell>
        <mxCell id="G3xAbqQEGoSnrevAdHmW-4" value="" style="verticalLabelPosition=bottom;shadow=0;dashed=0;align=center;html=1;verticalAlign=top;strokeWidth=1;shape=mxgraph.mockup.markup.curlyBrace;whiteSpace=wrap;strokeColor=#000000;" vertex="1" parent="1">
          <mxGeometry x="200" y="210" width="90" height="20" as="geometry" />
        </mxCell>
        <mxCell id="G3xAbqQEGoSnrevAdHmW-6" value="&lt;font style=&quot;font-size: 14px;&quot;&gt;34 ms&lt;/font&gt;" style="text;html=1;align=center;verticalAlign=middle;resizable=0;points=[];autosize=1;strokeColor=none;fillColor=none;" vertex="1" parent="1">
          <mxGeometry x="215" y="180" width="60" height="30" as="geometry" />
        </mxCell>
        <mxCell id="G3xAbqQEGoSnrevAdHmW-8" value="" style="verticalLabelPosition=bottom;verticalAlign=top;html=1;shape=mxgraph.basic.frame;dx=10;whiteSpace=wrap;" vertex="1" parent="1">
          <mxGeometry x="459" y="220" width="50" height="40" as="geometry" />
        </mxCell>
        <mxCell id="G3xAbqQEGoSnrevAdHmW-9" value="" style="verticalLabelPosition=bottom;shadow=0;dashed=0;align=center;html=1;verticalAlign=top;strokeWidth=1;shape=mxgraph.mockup.markup.curlyBrace;whiteSpace=wrap;strokeColor=#000000;" vertex="1" parent="1">
          <mxGeometry x="348" y="210" width="106" height="20" as="geometry" />
        </mxCell>
        <mxCell id="G3xAbqQEGoSnrevAdHmW-10" value="&lt;font style=&quot;font-size: 14px;&quot;&gt;40 ms&lt;/font&gt;" style="text;html=1;align=center;verticalAlign=middle;resizable=0;points=[];autosize=1;strokeColor=none;fillColor=none;" vertex="1" parent="1">
          <mxGeometry x="371" y="180" width="60" height="30" as="geometry" />
        </mxCell>
        <mxCell id="G3xAbqQEGoSnrevAdHmW-11" value="&lt;font style=&quot;font-size: 18px;&quot;&gt;&amp;lt;canvas&amp;gt;&lt;/font&gt;" style="text;html=1;align=center;verticalAlign=middle;resizable=0;points=[];autosize=1;strokeColor=none;fillColor=none;" vertex="1" parent="1">
          <mxGeometry x="550" y="220" width="100" height="40" as="geometry" />
        </mxCell>
        <mxCell id="G3xAbqQEGoSnrevAdHmW-13" value="" style="shape=image;html=1;verticalAlign=top;verticalLabelPosition=bottom;labelBackgroundColor=#ffffff;imageAspect=0;aspect=fixed;image=https://cdn4.iconfinder.com/data/icons/48-bubbles/48/24.TV-128.png" vertex="1" parent="1">
          <mxGeometry x="555" y="249" width="90" height="90" as="geometry" />
        </mxCell>
        <mxCell id="G3xAbqQEGoSnrevAdHmW-1" value="" style="verticalLabelPosition=bottom;verticalAlign=top;html=1;shape=mxgraph.basic.frame;dx=10;whiteSpace=wrap;" vertex="1" parent="1">
          <mxGeometry x="146" y="220" width="50" height="40" as="geometry" />
        </mxCell>
        <mxCell id="G3xAbqQEGoSnrevAdHmW-16" value="" style="endArrow=none;html=1;rounded=0;dashed=1;endFill=0;entryX=0;entryY=0.5;entryDx=0;entryDy=0;entryPerimeter=0;exitX=1;exitY=0.5;exitDx=0;exitDy=0;exitPerimeter=0;" edge="1" parent="1" source="G3xAbqQEGoSnrevAdHmW-1" target="G3xAbqQEGoSnrevAdHmW-2">
          <mxGeometry width="50" height="50" relative="1" as="geometry">
            <mxPoint x="210" y="240" as="sourcePoint" />
            <mxPoint x="260" y="240" as="targetPoint" />
          </mxGeometry>
        </mxCell>
        <mxCell id="G3xAbqQEGoSnrevAdHmW-17" value="" style="endArrow=none;html=1;rounded=0;dashed=1;endFill=0;entryX=0;entryY=0.5;entryDx=0;entryDy=0;entryPerimeter=0;exitX=1;exitY=0.5;exitDx=0;exitDy=0;exitPerimeter=0;" edge="1" parent="1" source="G3xAbqQEGoSnrevAdHmW-2" target="G3xAbqQEGoSnrevAdHmW-8">
          <mxGeometry width="50" height="50" relative="1" as="geometry">
            <mxPoint x="353" y="239.5" as="sourcePoint" />
            <mxPoint x="460" y="239.5" as="targetPoint" />
          </mxGeometry>
        </mxCell>
        <mxCell id="G3xAbqQEGoSnrevAdHmW-18" value="" style="endArrow=classic;html=1;rounded=0;dashed=1;endFill=1;exitX=1;exitY=0.5;exitDx=0;exitDy=0;exitPerimeter=0;" edge="1" parent="1" source="G3xAbqQEGoSnrevAdHmW-8">
          <mxGeometry width="50" height="50" relative="1" as="geometry">
            <mxPoint x="520" y="239.5" as="sourcePoint" />
            <mxPoint x="540" y="240" as="targetPoint" />
          </mxGeometry>
        </mxCell>
        <mxCell id="G3xAbqQEGoSnrevAdHmW-19" value="" style="endArrow=none;html=1;rounded=0;endFill=0;" edge="1" parent="1">
          <mxGeometry width="50" height="50" relative="1" as="geometry">
            <mxPoint x="130" y="350" as="sourcePoint" />
            <mxPoint x="230" y="350" as="targetPoint" />
          </mxGeometry>
        </mxCell>
        <mxCell id="G3xAbqQEGoSnrevAdHmW-20" value="" style="endArrow=none;html=1;rounded=0;endFill=0;dashed=1;dashPattern=1 4;" edge="1" parent="1">
          <mxGeometry width="50" height="50" relative="1" as="geometry">
            <mxPoint x="230" y="350" as="sourcePoint" />
            <mxPoint x="380" y="350" as="targetPoint" />
          </mxGeometry>
        </mxCell>
        <mxCell id="G3xAbqQEGoSnrevAdHmW-21" value="" style="endArrow=classic;html=1;rounded=0;endFill=1;" edge="1" parent="1">
          <mxGeometry width="50" height="50" relative="1" as="geometry">
            <mxPoint x="370" y="350" as="sourcePoint" />
            <mxPoint x="540" y="350" as="targetPoint" />
          </mxGeometry>
        </mxCell>
        <mxCell id="G3xAbqQEGoSnrevAdHmW-22" value="&lt;font style=&quot;font-size: 18px;&quot;&gt;&amp;lt;video&amp;gt;&lt;/font&gt;" style="text;html=1;align=center;verticalAlign=middle;resizable=0;points=[];autosize=1;strokeColor=none;fillColor=none;" vertex="1" parent="1">
          <mxGeometry x="555" y="328" width="90" height="40" as="geometry" />
        </mxCell>
        <mxCell id="G3xAbqQEGoSnrevAdHmW-23" value="" style="verticalLabelPosition=bottom;shadow=0;dashed=0;align=center;html=1;verticalAlign=top;strokeWidth=1;shape=mxgraph.mockup.markup.curlyBrace;whiteSpace=wrap;strokeColor=#000000;direction=west;" vertex="1" parent="1">
          <mxGeometry x="235" y="362" width="130" height="20" as="geometry" />
        </mxCell>
        <mxCell id="G3xAbqQEGoSnrevAdHmW-24" value="&lt;font style=&quot;font-size: 14px;&quot;&gt;Pause event of 38 ms&lt;/font&gt;" style="text;html=1;align=center;verticalAlign=middle;resizable=0;points=[];autosize=1;strokeColor=none;fillColor=none;" vertex="1" parent="1">
          <mxGeometry x="220" y="382" width="160" height="30" as="geometry" />
        </mxCell>
        <mxCell id="G3xAbqQEGoSnrevAdHmW-25" value="&lt;font style=&quot;font-size: 20px;&quot;&gt;MoQ&lt;/font&gt;" style="text;html=1;align=center;verticalAlign=middle;resizable=0;points=[];autosize=1;strokeColor=none;fillColor=none;" vertex="1" parent="1">
          <mxGeometry x="58" y="220" width="70" height="40" as="geometry" />
        </mxCell>
        <mxCell id="G3xAbqQEGoSnrevAdHmW-26" value="&lt;font style=&quot;font-size: 20px;&quot;&gt;LL-DASH&lt;/font&gt;" style="text;html=1;align=center;verticalAlign=middle;resizable=0;points=[];autosize=1;strokeColor=none;fillColor=none;" vertex="1" parent="1">
          <mxGeometry x="18" y="328" width="110" height="40" as="geometry" />
        </mxCell>
      </root>
    </mxGraphModel>
  </diagram>
</mxfile>
